<?xml version="1.0" standalone="no"?>
<!DOCTYPE svg PUBLIC "-//W3C//DTD SVG 20010904//EN"
 "http://www.w3.org/TR/2001/REC-SVG-20010904/DTD/svg10.dtd">
<svg version="1.0" xmlns="http://www.w3.org/2000/svg"
 width="1402.000000pt" height="1402.000000pt" viewBox="0 0 1402.000000 1402.000000"
 preserveAspectRatio="xMidYMid meet">
<metadata>
Created by potrace 1.11, written by Peter Selinger 2001-2013
</metadata>
<g transform="translate(0.000000,1402.000000) scale(0.100000,-0.100000)"
fill="#000000" stroke="none">
<path d="M6585 12999 c-416 -32 -849 -110 -1245 -224 -215 -62 -450 -144 -450
-156 0 -9 410 -1051 417 -1058 2 -3 90 23 196 57 443 143 820 212 1290 238
l127 7 0 573 0 574 -112 -1 c-62 -1 -162 -6 -223 -10z"/>
<path d="M7120 12438 l0 -575 128 -7 c1091 -60 2065 -437 2894 -1121 171 -141
502 -472 643 -643 683 -828 1063 -1811 1121 -2894 l7 -128 575 0 575 0 -6 168
c-40 1034 -367 2077 -930 2963 -249 393 -497 701 -836 1040 -339 339 -647 587
-1040 836 -886 563 -1929 890 -2963 930 l-168 6 0 -575z"/>
<path d="M4575 12496 c-474 -209 -929 -487 -1345 -820 -216 -173 -547 -482
-539 -503 2 -5 157 -152 344 -327 187 -176 372 -351 412 -389 l72 -71 113 110
c265 257 545 472 883 677 106 64 446 238 582 298 l32 14 -211 533 c-116 292
-214 532 -217 532 -3 0 -60 -24 -126 -54z"/>
<path d="M2453 10928 c-536 -626 -921 -1305 -1173 -2068 -62 -189 -90 -289
-82 -294 4 -2 248 -66 542 -141 294 -75 542 -138 551 -141 13 -3 20 10 34 58
170 614 532 1286 968 1795 l96 111 -414 388 c-227 214 -418 390 -423 392 -6 2
-50 -43 -99 -100z"/>
<path d="M5210 9089 c-183 -123 -455 -234 -696 -282 l-119 -24 -3 -387 -2
-386 61 0 c149 0 376 51 549 125 47 19 86 35 87 35 2 0 3 -781 3 -1735 l0
-1735 405 0 405 0 0 2220 0 2220 -307 0 -308 0 -75 -51z"/>
<path d="M6700 8725 l0 -395 1070 0 c589 0 1070 -2 1070 -6 0 -5 -1970 -3560
-1996 -3601 l-14 -23 547 0 548 1 943 1826 942 1826 -2 381 -3 381 -1552 3
-1553 2 0 -395z"/>
<path d="M1140 8377 c0 -2 -14 -68 -30 -146 -91 -429 -130 -806 -130 -1261 0
-455 39 -830 130 -1262 33 -154 117 -476 130 -498 6 -10 64 5 261 69 140 46
385 125 545 177 l291 95 -28 102 c-69 246 -131 580 -161 867 -17 165 -17 735
0 900 17 164 58 428 87 563 16 77 19 110 11 113 -6 2 -249 65 -541 139 -291
75 -538 138 -547 141 -10 3 -18 4 -18 1z"/>
<path d="M11906 6743 c-19 -361 -68 -683 -156 -1019 -208 -797 -633 -1554
-1198 -2136 l-114 -117 308 -328 c169 -180 347 -369 395 -420 l87 -91 119 121
c452 463 799 954 1093 1552 268 543 441 1078 540 1668 45 269 80 624 80 815
l0 82 -574 0 -573 0 -7 -127z"/>
<path d="M1855 5191 c-297 -96 -542 -176 -544 -178 -18 -13 165 -462 295 -723
128 -257 232 -438 379 -660 350 -528 776 -992 1285 -1398 63 -51 117 -92 120
-91 9 0 665 912 665 925 0 6 -38 42 -85 80 -225 180 -516 463 -689 669 -266
319 -465 624 -646 990 -88 178 -134 284 -226 526 l-14 35 -540 -175z"/>
<path d="M10235 3283 c-98 -90 -313 -256 -470 -362 -717 -485 -1520 -763
-2394 -831 -74 -5 -161 -10 -193 -10 l-58 0 0 -575 0 -575 69 0 c181 0 574 38
826 81 1090 183 2096 653 2944 1378 67 57 120 107 119 112 -6 17 -773 829
-783 829 -5 -1 -32 -22 -60 -47z"/>
<path d="M4182 2898 c-93 -125 -632 -870 -632 -873 0 -8 287 -194 425 -275
193 -113 585 -304 795 -388 642 -255 1318 -401 1984 -428 l166 -7 0 575 0 575
-132 7 c-553 28 -1096 147 -1595 346 -270 108 -650 310 -885 468 -42 29 -79
52 -82 52 -3 0 -23 -24 -44 -52z"/>
</g>
</svg>
