<?xml version="1.0" standalone="no"?>
<!DOCTYPE svg PUBLIC "-//W3C//DTD SVG 20010904//EN"
 "http://www.w3.org/TR/2001/REC-SVG-20010904/DTD/svg10.dtd">
<svg version="1.0" xmlns="http://www.w3.org/2000/svg"
 width="1655.000000pt" height="1655.000000pt" viewBox="0 0 1655.000000 1655.000000"
 preserveAspectRatio="xMidYMid meet">
<metadata>
Created by potrace 1.11, written by Peter Selinger 2001-2013
</metadata>
<g transform="translate(0.000000,1655.000000) scale(0.100000,-0.100000)"
fill="#000000" stroke="none">
<path d="M7999 15386 c-2 -3 -81 -10 -174 -15 -179 -12 -486 -40 -496 -47 -3
-2 -82 -15 -175 -28 -93 -14 -198 -32 -234 -41 -36 -8 -117 -26 -180 -39 -169
-36 -455 -112 -620 -166 -151 -50 -327 -112 -340 -120 -13 -8 -12 -16 4 -57
10 -26 29 -77 42 -111 14 -35 33 -83 43 -105 10 -23 22 -53 26 -67 4 -14 16
-43 26 -65 10 -22 29 -69 43 -105 57 -153 78 -207 91 -235 7 -16 48 -118 90
-225 42 -107 79 -204 84 -215 26 -66 38 -85 51 -85 9 0 56 14 105 30 370 124
656 195 1005 250 278 44 309 47 568 62 l232 12 -2 686 -3 685 -90 3 c-50 1
-93 1 -96 -2z"/>
<path d="M8420 14701 l0 -688 163 -7 c89 -4 225 -13 302 -21 145 -14 518 -69
548 -81 10 -4 77 -19 150 -34 346 -72 737 -203 1122 -375 137 -61 447 -223
570 -298 324 -197 656 -442 895 -659 214 -195 549 -547 655 -690 11 -15 65
-87 121 -160 103 -135 220 -305 284 -411 19 -32 44 -73 56 -91 21 -33 107
-188 177 -320 40 -76 187 -390 187 -400 0 -4 9 -25 20 -49 33 -72 135 -356
177 -492 141 -463 229 -966 249 -1430 l7 -165 683 0 c388 0 685 4 688 9 12 20
-44 817 -60 842 -2 4 -13 73 -24 155 -12 82 -27 176 -35 209 -8 33 -24 110
-35 170 -12 61 -28 133 -35 160 -8 28 -26 95 -40 150 -40 163 -112 400 -174
575 -55 157 -158 418 -170 435 -5 5 -13 25 -19 43 -25 74 -272 574 -298 603
-8 8 -14 19 -14 24 0 8 -37 73 -113 200 -147 243 -289 448 -522 754 -41 55
-211 257 -259 310 -28 30 -73 80 -101 111 -79 88 -352 359 -439 435 -43 39
-88 80 -100 91 -25 25 -257 217 -306 254 -19 14 -48 37 -64 51 -102 85 -504
358 -676 458 -41 24 -91 54 -110 67 -19 12 -48 28 -65 35 -16 7 -37 18 -45 25
-38 31 -487 250 -665 324 -55 23 -125 52 -155 65 -30 12 -73 28 -95 35 -22 7
-44 16 -50 20 -5 4 -41 17 -80 30 -38 12 -83 28 -100 35 -16 7 -41 16 -55 20
-14 3 -74 22 -135 40 -243 74 -283 86 -365 104 -47 11 -112 27 -145 35 -131
32 -317 69 -470 92 -88 13 -182 28 -210 33 -71 13 -688 61 -778 61 l-47 0 0
-689z"/>
<path d="M5465 14804 c-231 -101 -619 -296 -735 -369 -19 -12 -87 -52 -150
-90 -214 -127 -535 -349 -698 -481 -37 -31 -89 -72 -117 -93 -138 -105 -605
-540 -605 -564 0 -6 22 -32 48 -57 762 -718 937 -880 944 -878 3 2 62 57 130
123 485 472 1045 846 1711 1144 l67 30 -21 53 c-12 29 -32 82 -46 118 -13 36
-31 79 -38 95 -8 17 -25 59 -39 95 -13 36 -38 101 -56 145 -17 44 -47 118 -65
165 -19 47 -47 119 -63 160 -17 41 -40 100 -51 130 -12 30 -30 75 -41 100 -11
25 -33 82 -50 128 -17 45 -35 82 -38 82 -4 0 -43 -16 -87 -36z"/>
<path d="M2888 12922 c-356 -412 -630 -805 -890 -1282 -75 -137 -228 -443
-228 -455 0 -3 -15 -37 -34 -77 -18 -40 -37 -84 -41 -98 -4 -14 -11 -30 -16
-36 -5 -6 -20 -42 -34 -80 -14 -38 -30 -78 -35 -89 -33 -69 -166 -467 -210
-628 l-18 -68 26 -10 c15 -6 79 -23 142 -39 63 -16 178 -45 255 -65 77 -20
183 -47 235 -60 52 -13 158 -40 235 -60 77 -21 192 -50 255 -65 63 -15 127
-33 142 -38 33 -13 42 -4 58 58 17 69 102 334 110 345 4 6 15 35 25 65 10 30
28 78 40 105 12 28 28 68 35 90 7 22 16 45 20 50 4 6 20 39 35 75 58 139 232
476 320 620 19 30 41 68 51 84 18 33 147 227 196 296 105 148 219 293 358 455
l74 88 -100 96 c-56 53 -206 195 -335 315 -129 121 -297 279 -375 352 -77 73
-152 142 -166 154 l-27 21 -103 -119z"/>
<path d="M9380 10909 c-821 -64 -1390 -396 -1603 -934 -59 -149 -80 -272 -81
-475 -2 -287 45 -447 197 -675 159 -238 420 -462 727 -624 53 -28 88 -52 80
-54 -8 -3 -66 -15 -129 -27 -285 -54 -543 -180 -732 -358 -104 -97 -162 -176
-221 -298 -181 -378 -127 -874 135 -1226 269 -364 801 -651 1367 -738 354 -54
782 -59 1140 -14 945 118 1565 582 1676 1253 24 149 15 398 -19 533 -82 316
-265 546 -597 748 -100 61 -365 193 -499 248 l-93 39 63 12 c251 49 489 171
653 334 269 267 373 618 300 1010 -116 616 -738 1096 -1584 1221 -226 34 -540
44 -780 25z m663 -889 c379 -65 644 -257 712 -515 19 -76 19 -224 0 -300 -71
-270 -380 -487 -760 -534 -159 -19 -153 -21 -479 105 -329 126 -490 199 -587
265 -93 62 -172 147 -210 225 -30 61 -33 75 -32 153 3 175 75 308 227 416 151
106 380 181 626 205 133 12 370 3 503 -20z m-52 -2369 c561 -211 620 -238 773
-361 133 -107 188 -219 190 -385 1 -89 -2 -106 -26 -157 -77 -166 -297 -297
-597 -357 -175 -36 -291 -45 -551 -45 -274 0 -402 13 -587 59 -344 87 -599
289 -668 529 -24 82 -17 248 14 327 53 138 187 282 348 372 161 91 423 161
654 175 14 1 217 -70 450 -157z"/>
<path d="M5780 10778 c-124 -82 -325 -183 -464 -233 -111 -40 -334 -100 -411
-111 -27 -4 -60 -11 -73 -15 l-22 -9 2 -452 3 -453 113 2 c187 4 414 59 635
153 l87 38 0 -2064 0 -2064 480 0 480 0 0 2640 0 2640 -362 -1 -363 -1 -105
-70z"/>
<path d="M1325 9877 c-17 -53 -56 -231 -70 -317 -9 -58 -21 -118 -26 -135 -7
-26 -30 -190 -69 -505 -43 -342 -40 -1116 5 -1455 8 -60 24 -186 36 -280 11
-93 23 -173 25 -177 3 -4 14 -59 24 -120 19 -109 52 -263 91 -418 11 -41 28
-111 39 -155 29 -113 63 -205 76 -205 7 0 92 26 190 58 99 33 253 82 344 111
91 29 181 59 200 66 31 12 471 153 528 170 28 8 28 32 3 111 -27 81 -95 370
-126 534 -29 149 -71 487 -85 680 -12 157 -12 598 0 750 16 204 54 525 75 620
31 143 65 333 61 338 -3 2 -47 15 -98 28 -51 12 -156 39 -233 59 -77 20 -192
50 -255 65 -132 34 -284 73 -485 125 -254 66 -246 64 -250 52z"/>
<path d="M14107 8093 c-3 -5 -8 -82 -12 -172 -16 -385 -83 -815 -188 -1216
-57 -215 -182 -584 -243 -712 -13 -28 -24 -55 -24 -59 0 -8 -9 -27 -114 -247
-79 -166 -178 -350 -252 -469 -68 -111 -200 -313 -234 -358 -15 -19 -60 -80
-101 -135 -132 -179 -295 -369 -478 -558 l-105 -107 35 -37 c57 -63 248 -267
424 -453 133 -141 368 -392 420 -447 27 -29 54 -53 61 -53 24 0 464 470 553
590 14 19 46 60 72 90 65 78 225 295 317 432 103 152 156 238 287 458 100 169
215 397 319 630 26 58 56 123 66 145 10 22 39 94 65 160 25 66 54 140 64 165
24 59 142 429 176 550 72 254 148 609 180 840 8 63 20 140 25 170 17 102 40
399 47 600 l6 200 -681 0 c-374 0 -683 -3 -685 -7z"/>
<path d="M2775 6300 c-11 -4 -128 -43 -260 -85 -132 -42 -312 -101 -400 -129
-88 -29 -254 -84 -370 -121 -115 -38 -214 -72 -219 -76 -10 -9 -7 -19 44 -159
190 -520 439 -1007 756 -1485 140 -210 133 -199 224 -319 41 -54 82 -108 90
-120 8 -11 78 -97 156 -191 282 -340 569 -627 909 -909 94 -78 180 -148 191
-156 12 -8 39 -28 59 -45 l37 -29 24 29 c37 45 39 48 60 80 17 27 95 135 170
235 26 35 101 139 229 316 104 143 250 343 284 390 37 49 38 65 9 83 -12 7
-55 41 -96 75 -677 554 -1193 1193 -1558 1927 -107 213 -163 344 -277 642 -22
58 -27 62 -62 47z"/>
<path d="M12105 3829 c-250 -221 -558 -444 -867 -626 -126 -74 -485 -259 -581
-299 -482 -201 -804 -302 -1240 -388 -271 -54 -727 -106 -924 -106 l-73 0 0
-685 0 -685 73 0 c330 1 974 82 1387 175 511 115 1065 308 1540 538 137 66
474 248 565 305 28 17 66 40 85 51 124 69 502 335 709 499 118 95 335 281 339
294 4 10 -19 36 -233 263 -78 83 -179 191 -226 241 -214 230 -464 494 -469
494 -3 -1 -41 -33 -85 -71z"/>
<path d="M4942 3398 c-73 -100 -297 -409 -317 -438 -11 -16 -94 -130 -185
-255 -234 -322 -259 -358 -254 -366 5 -9 301 -206 349 -233 17 -9 55 -32 85
-51 88 -54 466 -258 570 -307 270 -130 558 -246 855 -347 236 -79 603 -176
845 -222 58 -11 150 -28 206 -39 94 -18 164 -28 479 -65 161 -19 400 -35 523
-35 l92 0 0 683 0 684 -157 7 c-87 3 -194 11 -238 17 -44 5 -156 18 -248 29
-832 99 -1744 437 -2437 905 -41 28 -87 58 -102 68 l-27 17 -39 -52z"/>
</g>
</svg>
